<?xml version="1.0" encoding="utf-8"?>
<!-- Generator: Adobe Illustrator 24.3.0, SVG Export Plug-In . SVG Version: 6.00 Build 0)  -->
<svg version="1.1" id="Capa_1" xmlns="http://www.w3.org/2000/svg" xmlns:xlink="http://www.w3.org/1999/xlink" x="0px" y="0px"
	 viewBox="0 0 398.9 73.93" style="enable-background:new 0 0 398.9 73.93;" xml:space="preserve">
<style type="text/css">
	.st0{fill:#EEEEEE;}
	.st1{fill:#52AAB3;}
	.st2{fill:#3A3E45;}
	.st3{fill:#232830;}
	.st4{fill:#1D71B8;}
	.st5{fill:#E71D73;}
	.st6{fill:#FFED00;}
	.st7{fill:none;stroke:#000000;stroke-width:0.25;stroke-miterlimit:10;}
</style>
<g>
	<g>
		<path class="st4" d="M4.94,5.33h14v60.48h-14V5.33z"/>
		<path class="st4" d="M81.83,5.33v60.48H70.34L40.18,29.09v36.72H26.36V5.33h11.58l30.07,36.72V5.33H81.83z"/>
		<path class="st4" d="M89.24,5.33h27.48c19.79,0,33.35,11.92,33.35,30.24s-13.57,30.24-33.35,30.24H89.24V5.33z M116.02,54.32
			c12.01,0,19.87-7.17,19.87-18.75s-7.86-18.75-19.87-18.75h-12.79v37.5H116.02z"/>
		<path class="st4" d="M200.5,54.58v11.23h-46.83V5.33h45.71v11.23h-31.8V29.7h28.08v10.89h-28.08v14H200.5z"/>
		<path class="st4" d="M242.21,65.81l-14.6-21l-14.34,21H197.2l22.38-30.76L198.32,5.33h15.9l13.91,19.61l13.65-19.61h15.12
			l-21.08,29.2l22.55,31.28H242.21z"/>
		<path class="st4" d="M256.97,5.33h14v60.48h-14V5.33z"/>
		<path class="st4" d="M319.25,34.62h12.79v24.54c-6.65,5.01-15.81,7.69-24.45,7.69c-19.01,0-33.01-13.05-33.01-31.28
			s14-31.28,33.27-31.28c10.63,0,19.44,3.63,25.31,10.46l-8.99,8.29c-4.41-4.66-9.5-6.83-15.64-6.83
			c-11.75,0-19.79,7.86-19.79,19.35c0,11.32,8.04,19.35,19.61,19.35c3.8,0,7.34-0.69,10.89-2.59V34.62z"/>
		<path class="st4" d="M393.54,5.33v60.48h-11.49l-30.15-36.72v36.72h-13.82V5.33h11.58l30.07,36.72V5.33H393.54z"/>
	</g>
	<g>
		<path class="st5" d="M2.88,3.27h14v60.48h-14V3.27z"/>
		<path class="st5" d="M79.77,3.27v60.48H68.27L38.12,27.03v36.72H24.3V3.27h11.58l30.07,36.72V3.27H79.77z"/>
		<path class="st5" d="M87.17,3.27h27.48c19.79,0,33.35,11.92,33.35,30.24s-13.57,30.24-33.35,30.24H87.17V3.27z M113.96,52.26
			c12.01,0,19.87-7.17,19.87-18.75s-7.86-18.75-19.87-18.75h-12.79v37.5H113.96z"/>
		<path class="st5" d="M198.43,52.52v11.23H151.6V3.27h45.71V14.5h-31.8v13.13h28.08v10.89h-28.08v14H198.43z"/>
		<path class="st5" d="M240.15,63.75l-14.6-21l-14.34,21h-16.07l22.38-30.76L196.25,3.27h15.9l13.91,19.61l13.65-19.61h15.12
			l-21.08,29.2l22.55,31.28H240.15z"/>
		<path class="st5" d="M254.9,3.27h14v60.48h-14V3.27z"/>
		<path class="st5" d="M317.19,32.56h12.79V57.1c-6.65,5.01-15.81,7.69-24.45,7.69c-19.01,0-33.01-13.05-33.01-31.28
			s14-31.28,33.27-31.28c10.63,0,19.44,3.63,25.31,10.46l-8.99,8.29c-4.41-4.66-9.5-6.83-15.64-6.83
			c-11.75,0-19.79,7.86-19.79,19.35c0,11.32,8.04,19.35,19.61,19.35c3.8,0,7.34-0.69,10.89-2.59V32.56z"/>
		<path class="st5" d="M391.47,3.27v60.48h-11.49l-30.15-36.72v36.72H336V3.27h11.58l30.07,36.72V3.27H391.47z"/>
	</g>
	<g>
		<path class="st6" d="M5.13,2.65h14v60.48h-14V2.65z"/>
		<path class="st6" d="M82.02,2.65v60.48H70.53L40.37,26.41v36.72H26.55V2.65h11.58L68.2,39.37V2.65H82.02z"/>
		<path class="st6" d="M89.43,2.65h27.48c19.79,0,33.35,11.92,33.35,30.24s-13.57,30.24-33.35,30.24H89.43V2.65z M116.21,51.64
			c12.01,0,19.87-7.17,19.87-18.75s-7.86-18.75-19.87-18.75h-12.79v37.5H116.21z"/>
		<path class="st6" d="M200.69,51.9v11.23h-46.83V2.65h45.71v11.23h-31.8v13.13h28.08V37.9h-28.08v14H200.69z"/>
		<path class="st6" d="M242.4,63.13l-14.6-21l-14.34,21h-16.07l22.38-30.76L198.51,2.65h15.9l13.91,19.61l13.65-19.61h15.12
			l-21.08,29.2l22.55,31.28H242.4z"/>
		<path class="st6" d="M257.16,2.65h14v60.48h-14V2.65z"/>
		<path class="st6" d="M319.44,31.94h12.79v24.54c-6.65,5.01-15.81,7.69-24.45,7.69c-19.01,0-33.01-13.05-33.01-31.28
			s14-31.28,33.27-31.28c10.63,0,19.44,3.63,25.31,10.46l-8.99,8.29c-4.41-4.66-9.5-6.83-15.64-6.83
			c-11.75,0-19.79,7.86-19.79,19.35c0,11.32,8.04,19.35,19.61,19.35c3.8,0,7.34-0.69,10.89-2.59V31.94z"/>
		<path class="st6" d="M393.73,2.65v60.48h-11.49l-30.15-36.72v36.72h-13.82V2.65h11.58l30.07,36.72V2.65H393.73z"/>
	</g>
</g>
</svg>
